STARTFONT 2.1
FONT -Monotype-Nimrod-Bold-R-Normal--17-120-100-100-P-103-iso8859-5
SIZE 12 100 100
FONTBOUNDINGBOX 22 21 -1 -4

STARTPROPERTIES 24
FOUNDRY "Monotype"
FAMILY_NAME "Nimrod"
WEIGHT_NAME "Bold"
SLANT "R"
SETWIDTH_NAME "Normal"
ADD_STYLE_NAME ""
PIXEL_SIZE 17
POINT_SIZE 120
RESOLUTION_X 100
RESOLUTION_Y 100
SPACING "P"
AVERAGE_WIDTH 103
CHARSET_REGISTRY "iso8859"
CHARSET_ENCODING "5"
FACE_NAME "Nimrod Bold ISO Latin Cyrillic"
_DEC_DEVICE_FONTNAMES "PS=nimrod-b-latcyrillic"
COPYRIGHT "Copyright (c) 1994 Monotype Typography Ltd."
CAP_HEIGHT 15
X_HEIGHT 11
WEIGHT 10
QUAD_WIDTH 12
DEFAULT_CHAR 160
FONT_DESCENT 4
FONT_ASCENT 17
ENDPROPERTIES

CHARS 191

STARTCHAR space
ENCODING 32
SWIDTH 250 0
DWIDTH 4 0
BBX 0 0 0 0
BITMAP
ENDCHAR

STARTCHAR exclam
ENCODING 33
SWIDTH 323 0
DWIDTH 5 0
BBX 3 13 1 0
BITMAP
40
E0
E0
E0
E0
E0
E0
40
40
00
E0
E0
E0
ENDCHAR

STARTCHAR quotedbl
ENCODING 34
SWIDTH 552 0
DWIDTH 9 0
BBX 6 5 2 8
BITMAP
CC
CC
CC
44
44
ENDCHAR

STARTCHAR numbersign
ENCODING 35
SWIDTH 667 0
DWIDTH 11 0
BBX 11 13 0 0
BITMAP
18C0
18C0
18C0
18C0
7FE0
3180
3180
3180
FFC0
6300
6300
6300
6300
ENDCHAR

STARTCHAR dollar
ENCODING 36
SWIDTH 542 0
DWIDTH 9 0
BBX 7 15 1 -2
BITMAP
10
7C
F6
D6
F4
F0
78
3C
1E
5E
D6
DE
7C
10
10
ENDCHAR

STARTCHAR percent
ENCODING 37
SWIDTH 1000 0
DWIDTH 17 0
BBX 14 13 2 0
BITMAP
7060
D840
D8C0
D880
D980
D900
7338
026C
066C
046C
0C6C
086C
1838
ENDCHAR

STARTCHAR ampersand
ENCODING 38
SWIDTH 865 0
DWIDTH 15 0
BBX 14 13 1 0
BITMAP
0F80
1CC0
18C0
18C0
1D80
0F00
1E3C
7718
E3B0
E1E0
E0C4
71E8
3E70
ENDCHAR

STARTCHAR quoteright
ENCODING 39
SWIDTH 323 0
DWIDTH 5 0
BBX 3 6 1 7
BITMAP
60
E0
60
20
40
80
ENDCHAR

STARTCHAR parenleft
ENCODING 40
SWIDTH 385 0
DWIDTH 7 0
BBX 6 16 1 -3
BITMAP
0C
18
30
70
60
E0
E0
E0
E0
E0
E0
60
70
30
18
0C
ENDCHAR

STARTCHAR parenright
ENCODING 41
SWIDTH 385 0
DWIDTH 7 0
BBX 6 16 1 -3
BITMAP
C0
60
30
38
18
1C
1C
1C
1C
1C
1C
18
38
30
60
C0
ENDCHAR

STARTCHAR asterisk
ENCODING 42
SWIDTH 552 0
DWIDTH 9 0
BBX 8 7 1 6
BITMAP
18
18
D3
FF
18
7E
66
ENDCHAR

STARTCHAR plus
ENCODING 43
SWIDTH 667 0
DWIDTH 11 0
BBX 8 8 2 1
BITMAP
18
18
18
FF
FF
18
18
18
ENDCHAR

STARTCHAR comma
ENCODING 44
SWIDTH 323 0
DWIDTH 5 0
BBX 3 6 1 -3
BITMAP
60
E0
60
20
40
80
ENDCHAR

STARTCHAR minus
ENCODING 45
SWIDTH 667 0
DWIDTH 11 0
BBX 9 2 1 4
BITMAP
FF80
FF80
ENDCHAR

STARTCHAR period
ENCODING 46
SWIDTH 323 0
DWIDTH 5 0
BBX 3 3 1 0
BITMAP
E0
E0
E0
ENDCHAR

STARTCHAR slash
ENCODING 47
SWIDTH 552 0
DWIDTH 9 0
BBX 8 13 1 0
BITMAP
03
02
06
04
0C
08
18
10
30
20
60
40
C0
ENDCHAR

STARTCHAR zero
ENCODING 48
SWIDTH 594 0
DWIDTH 10 0
BBX 9 13 1 0
BITMAP
1C00
6300
6300
E380
E380
E380
E380
E380
E380
E380
6300
6300
1C00
ENDCHAR

STARTCHAR one
ENCODING 49
SWIDTH 594 0
DWIDTH 10 0
BBX 7 13 2 0
BITMAP
18
F8
38
38
38
38
38
38
38
38
38
38
FE
ENDCHAR

STARTCHAR two
ENCODING 50
SWIDTH 594 0
DWIDTH 10 0
BBX 8 13 1 0
BITMAP
7C
CE
C7
E7
47
07
0E
0C
18
21
41
FF
FF
ENDCHAR

STARTCHAR three
ENCODING 51
SWIDTH 594 0
DWIDTH 10 0
BBX 9 13 1 0
BITMAP
3E00
6700
7380
2380
0380
0700
1E00
0700
0380
4380
E380
6700
3E00
ENDCHAR

STARTCHAR four
ENCODING 52
SWIDTH 594 0
DWIDTH 10 0
BBX 9 13 1 0
BITMAP
0200
0600
0E00
1E00
1E00
2E00
4E00
4E00
8E00
FF80
0E00
0E00
3F80
ENDCHAR

STARTCHAR five
ENCODING 53
SWIDTH 594 0
DWIDTH 10 0
BBX 9 13 0 0
BITMAP
3F00
7E00
4000
4000
5E00
6700
4380
0380
0380
4380
E380
6700
3C00
ENDCHAR

STARTCHAR six
ENCODING 54
SWIDTH 594 0
DWIDTH 10 0
BBX 9 13 1 0
BITMAP
1E00
7300
6380
E100
E000
EE00
F700
E380
E380
E380
E380
7700
3E00
ENDCHAR

STARTCHAR seven
ENCODING 55
SWIDTH 594 0
DWIDTH 10 0
BBX 8 13 1 0
BITMAP
7F
FF
83
83
06
06
0C
0C
1C
18
38
38
30
ENDCHAR

STARTCHAR eight
ENCODING 56
SWIDTH 594 0
DWIDTH 10 0
BBX 9 13 1 0
BITMAP
3E00
7700
E380
E380
E380
6300
1C00
6300
E380
E380
E380
7700
3E00
ENDCHAR

STARTCHAR nine
ENCODING 57
SWIDTH 594 0
DWIDTH 10 0
BBX 9 13 1 0
BITMAP
3E00
7700
E380
E380
E380
E380
7780
3B80
0380
4380
E300
6700
3C00
ENDCHAR

STARTCHAR colon
ENCODING 58
SWIDTH 323 0
DWIDTH 5 0
BBX 3 9 1 0
BITMAP
E0
E0
E0
00
00
00
E0
E0
E0
ENDCHAR

STARTCHAR semicolon
ENCODING 59
SWIDTH 323 0
DWIDTH 5 0
BBX 3 12 1 -3
BITMAP
E0
E0
E0
00
00
00
60
E0
60
20
40
80
ENDCHAR

STARTCHAR less
ENCODING 60
SWIDTH 667 0
DWIDTH 11 0
BBX 9 8 1 1
BITMAP
0080
0780
3E00
E000
E000
3E00
0780
0080
ENDCHAR

STARTCHAR equal
ENCODING 61
SWIDTH 667 0
DWIDTH 11 0
BBX 9 6 1 2
BITMAP
FF80
FF80
0000
0000
FF80
FF80
ENDCHAR

STARTCHAR greater
ENCODING 62
SWIDTH 667 0
DWIDTH 11 0
BBX 9 8 1 1
BITMAP
8000
F000
3E00
0380
0380
3E00
F000
8000
ENDCHAR

STARTCHAR question
ENCODING 63
SWIDTH 500 0
DWIDTH 9 0
BBX 8 14 1 0
BITMAP
3C
4E
E7
67
07
07
0E
18
10
10
00
38
38
38
ENDCHAR

STARTCHAR at
ENCODING 64
SWIDTH 927 0
DWIDTH 16 0
BBX 14 16 1 -3
BITMAP
07C0
1830
2008
43A8
46E4
8CC4
8CC4
98C4
9988
9988
9B90
4EE0
4004
2008
1830
07C0
ENDCHAR

STARTCHAR A
ENCODING 65
SWIDTH 854 0
DWIDTH 15 0
BBX 14 13 1 0
BITMAP
0100
0300
0380
0780
05C0
09C0
08E0
10E0
1FF0
2070
2038
7038
F8FC
ENDCHAR

STARTCHAR B
ENCODING 66
SWIDTH 792 0
DWIDTH 13 0
BBX 12 13 1 0
BITMAP
FF00
39C0
38E0
38E0
38E0
39C0
3F80
38E0
3870
3870
3870
38E0
FF80
ENDCHAR

STARTCHAR C
ENCODING 67
SWIDTH 750 0
DWIDTH 13 0
BBX 11 13 1 0
BITMAP
0FC0
38E0
7060
7020
E020
E000
E000
E000
E000
7020
7020
3840
0F80
ENDCHAR

STARTCHAR D
ENCODING 68
SWIDTH 823 0
DWIDTH 14 0
BBX 13 13 1 0
BITMAP
FF80
38E0
3870
3870
3838
3838
3838
3838
3838
3870
3870
38E0
FF80
ENDCHAR

STARTCHAR E
ENCODING 69
SWIDTH 750 0
DWIDTH 13 0
BBX 11 13 1 0
BITMAP
FFE0
38E0
3860
3820
38A0
3980
3F80
3980
38A0
3820
3860
38E0
FFE0
ENDCHAR

STARTCHAR F
ENCODING 70
SWIDTH 698 0
DWIDTH 12 0
BBX 11 13 1 0
BITMAP
FFE0
38E0
3860
3820
3920
3B00
3F00
3B00
3900
3800
3800
3800
FE00
ENDCHAR

STARTCHAR G
ENCODING 71
SWIDTH 854 0
DWIDTH 15 0
BBX 14 13 1 0
BITMAP
0FE0
3870
7030
7010
E010
E000
E000
E1FC
E070
7070
7060
38E0
0FC0
ENDCHAR

STARTCHAR H
ENCODING 72
SWIDTH 865 0
DWIDTH 15 0
BBX 14 13 1 0
BITMAP
FCFC
3870
3870
3870
3870
3870
3FF0
3870
3870
3870
3870
3870
FCFC
ENDCHAR

STARTCHAR I
ENCODING 73
SWIDTH 448 0
DWIDTH 8 0
BBX 7 13 1 0
BITMAP
FE
38
38
38
38
38
38
38
38
38
38
38
FE
ENDCHAR

STARTCHAR J
ENCODING 74
SWIDTH 635 0
DWIDTH 11 0
BBX 11 13 0 0
BITMAP
0FE0
0380
0380
0380
0380
0380
0380
0380
4380
E300
C700
6600
3C00
ENDCHAR

STARTCHAR K
ENCODING 75
SWIDTH 854 0
DWIDTH 15 0
BBX 14 13 1 0
BITMAP
FCFC
3830
3820
3840
3880
3980
3B80
3DC0
38E0
3860
3870
3838
FE7C
ENDCHAR

STARTCHAR L
ENCODING 76
SWIDTH 708 0
DWIDTH 12 0
BBX 11 13 1 0
BITMAP
FE00
3800
3800
3800
3800
3800
3800
3800
3820
3820
3860
38E0
FFE0
ENDCHAR

STARTCHAR M
ENCODING 77
SWIDTH 1052 0
DWIDTH 18 0
BBX 17 13 1 0
BITMAP
F81F80
3C1E00
3C2E00
2C2E00
2E2E00
2E4E00
274E00
274E00
23CE00
238E00
238E00
218E00
F93F80
ENDCHAR

STARTCHAR N
ENCODING 78
SWIDTH 833 0
DWIDTH 14 0
BBX 14 13 0 0
BITMAP
F87C
3810
3C10
2E10
2610
2710
2390
2390
21D0
20D0
20F0
2070
F830
ENDCHAR

STARTCHAR O
ENCODING 79
SWIDTH 823 0
DWIDTH 14 0
BBX 13 13 1 0
BITMAP
0F80
3060
7070
6030
E038
E038
E038
E038
E038
6030
7070
3060
0F80
ENDCHAR

STARTCHAR P
ENCODING 80
SWIDTH 729 0
DWIDTH 12 0
BBX 12 13 0 0
BITMAP
FFC0
38E0
3870
3870
3870
38E0
3FC0
3800
3800
3800
3800
3800
FE00
ENDCHAR

STARTCHAR Q
ENCODING 81
SWIDTH 823 0
DWIDTH 14 0
BBX 14 15 1 -2
BITMAP
0F80
3060
7070
6030
E038
E038
E038
EE38
F338
6130
71F0
30E0
0FC0
0060
003C
ENDCHAR

STARTCHAR R
ENCODING 82
SWIDTH 802 0
DWIDTH 14 0
BBX 13 13 1 0
BITMAP
FFC0
38E0
3870
3870
3870
38E0
3F80
39C0
38C0
38E0
3870
3870
FE38
ENDCHAR

STARTCHAR S
ENCODING 83
SWIDTH 646 0
DWIDTH 11 0
BBX 10 13 1 0
BITMAP
1F80
71C0
E0C0
E040
F040
7C00
3F00
0F80
83C0
81C0
C1C0
E180
7F00
ENDCHAR

STARTCHAR T
ENCODING 84
SWIDTH 729 0
DWIDTH 12 0
BBX 11 13 1 0
BITMAP
FFE0
EEE0
CE60
8E20
8E20
0E00
0E00
0E00
0E00
0E00
0E00
0E00
3F80
ENDCHAR

STARTCHAR U
ENCODING 85
SWIDTH 802 0
DWIDTH 14 0
BBX 14 13 0 0
BITMAP
FE7C
3810
3810
3810
3810
3810
3810
3810
3810
3810
3810
1C20
0FC0
ENDCHAR

STARTCHAR V
ENCODING 86
SWIDTH 823 0
DWIDTH 14 0
BBX 14 13 0 0
BITMAP
FC3C
7818
3810
3810
1C20
1C20
1C20
0E40
0E40
0E80
0680
0700
0300
ENDCHAR

STARTCHAR W
ENCODING 87
SWIDTH 1104 0
DWIDTH 19 0
BBX 19 13 0 0
BITMAP
F9F9E0
7060C0
706080
387080
38F100
38B100
1CBA00
1D1A00
1D1A00
0E1C00
0E0C00
060C00
040800
ENDCHAR

STARTCHAR X
ENCODING 88
SWIDTH 802 0
DWIDTH 14 0
BBX 14 13 0 0
BITMAP
FCFC
7030
3820
1C40
0E80
0700
0780
0380
05C0
08E0
1070
3038
FCFC
ENDCHAR

STARTCHAR Y
ENCODING 89
SWIDTH 792 0
DWIDTH 13 0
BBX 12 13 1 0
BITMAP
FCF0
7060
3840
1CC0
1C80
0F80
0700
0700
0700
0700
0700
0700
1FC0
ENDCHAR

STARTCHAR Z
ENCODING 90
SWIDTH 667 0
DWIDTH 11 0
BBX 10 13 1 0
BITMAP
7FC0
E0C0
C1C0
8380
8700
0E00
0E00
1C00
3840
7040
E0C0
C1C0
FF80
ENDCHAR

STARTCHAR bracketleft
ENCODING 91
SWIDTH 396 0
DWIDTH 7 0
BBX 5 16 2 -3
BITMAP
F8
E0
E0
E0
E0
E0
E0
E0
E0
E0
E0
E0
E0
E0
E0
F8
ENDCHAR

STARTCHAR backslash
ENCODING 92
SWIDTH 552 0
DWIDTH 9 0
BBX 8 13 1 0
BITMAP
C0
40
60
20
30
10
18
08
0C
04
06
02
03
ENDCHAR

STARTCHAR bracketright
ENCODING 93
SWIDTH 396 0
DWIDTH 7 0
BBX 5 16 1 -3
BITMAP
F8
38
38
38
38
38
38
38
38
38
38
38
38
38
38
F8
ENDCHAR

STARTCHAR asciicircum
ENCODING 94
SWIDTH 583 0
DWIDTH 10 0
BBX 7 6 2 7
BITMAP
10
38
28
6C
44
C6
ENDCHAR

STARTCHAR underscore
ENCODING 95
SWIDTH 500 0
DWIDTH 9 0
BBX 9 1 0 -4
BITMAP
FF80
ENDCHAR

STARTCHAR quoteleft
ENCODING 96
SWIDTH 323 0
DWIDTH 5 0
BBX 3 6 1 7
BITMAP
20
40
80
C0
E0
C0
ENDCHAR

STARTCHAR a
ENCODING 97
SWIDTH 615 0
DWIDTH 10 0
BBX 9 9 1 0
BITMAP
3E00
6700
4700
0700
1F00
6700
E700
E700
7980
ENDCHAR

STARTCHAR b
ENCODING 98
SWIDTH 646 0
DWIDTH 10 0
BBX 10 13 0 0
BITMAP
F000
7000
7000
7000
7700
7980
71C0
71C0
71C0
71C0
71C0
7180
4F00
ENDCHAR

STARTCHAR c
ENCODING 99
SWIDTH 542 0
DWIDTH 9 0
BBX 8 9 1 0
BITMAP
3E
73
E1
E0
E0
E0
E1
71
3E
ENDCHAR

STARTCHAR d
ENCODING 100
SWIDTH 646 0
DWIDTH 11 0
BBX 10 13 1 0
BITMAP
0780
0380
0380
0380
3B80
7780
E380
E380
E380
E380
E380
7380
3DC0
ENDCHAR

STARTCHAR e
ENCODING 101
SWIDTH 562 0
DWIDTH 10 0
BBX 9 9 1 0
BITMAP
3E00
6300
E380
E380
FF80
E000
E000
6100
1E00
ENDCHAR

STARTCHAR f
ENCODING 102
SWIDTH 406 0
DWIDTH 7 0
BBX 7 13 1 0
BITMAP
3C
76
72
70
FC
70
70
70
70
70
70
70
F8
ENDCHAR

STARTCHAR g
ENCODING 103
SWIDTH 604 0
DWIDTH 10 0
BBX 9 12 1 -3
BITMAP
3D80
6600
E700
E700
6600
7C00
C000
FE00
7F00
E380
E300
7E00
ENDCHAR

STARTCHAR h
ENCODING 104
SWIDTH 698 0
DWIDTH 12 0
BBX 11 13 1 0
BITMAP
F000
7000
7000
7000
7780
79C0
71C0
71C0
71C0
71C0
71C0
71C0
FBE0
ENDCHAR

STARTCHAR i
ENCODING 105
SWIDTH 385 0
DWIDTH 6 0
BBX 5 13 1 0
BITMAP
70
70
70
00
F0
70
70
70
70
70
70
70
F8
ENDCHAR

STARTCHAR j
ENCODING 106
SWIDTH 375 0
DWIDTH 6 0
BBX 6 16 -1 -3
BITMAP
1C
1C
1C
00
3C
1C
1C
1C
1C
1C
1C
1C
1C
1C
D8
70
ENDCHAR

STARTCHAR k
ENCODING 107
SWIDTH 698 0
DWIDTH 11 0
BBX 10 13 1 0
BITMAP
F000
7000
7000
7000
7780
7200
7400
7C00
7E00
7600
7300
7380
FBC0
ENDCHAR

STARTCHAR l
ENCODING 108
SWIDTH 385 0
DWIDTH 6 0
BBX 5 13 1 0
BITMAP
F0
70
70
70
70
70
70
70
70
70
70
70
F8
ENDCHAR

STARTCHAR m
ENCODING 109
SWIDTH 1000 0
DWIDTH 16 0
BBX 15 9 1 0
BITMAP
F7B8
7BDC
739C
739C
739C
739C
739C
739C
FBBE
ENDCHAR

STARTCHAR n
ENCODING 110
SWIDTH 698 0
DWIDTH 12 0
BBX 11 9 1 0
BITMAP
F780
79C0
71C0
71C0
71C0
71C0
71C0
71C0
F3E0
ENDCHAR

STARTCHAR o
ENCODING 111
SWIDTH 615 0
DWIDTH 10 0
BBX 9 9 1 0
BITMAP
3E00
6300
E380
E380
E380
E380
E380
6300
3E00
ENDCHAR

STARTCHAR p
ENCODING 112
SWIDTH 646 0
DWIDTH 11 0
BBX 10 12 1 -3
BITMAP
F700
7B80
71C0
71C0
71C0
71C0
71C0
7380
7E00
7000
7000
F800
ENDCHAR

STARTCHAR q
ENCODING 113
SWIDTH 646 0
DWIDTH 11 0
BBX 10 12 1 -3
BITMAP
1E80
7380
E380
E380
E380
E380
E380
7380
1F80
0380
0380
07C0
ENDCHAR

STARTCHAR r
ENCODING 114
SWIDTH 542 0
DWIDTH 8 0
BBX 7 9 1 0
BITMAP
EE
7A
70
70
70
70
70
70
FC
ENDCHAR

STARTCHAR s
ENCODING 115
SWIDTH 510 0
DWIDTH 8 0
BBX 7 9 1 0
BITMAP
7C
E6
E2
F8
7C
1E
8E
CE
7C
ENDCHAR

STARTCHAR t
ENCODING 116
SWIDTH 427 0
DWIDTH 7 0
BBX 6 13 1 0
BITMAP
10
30
30
70
FC
70
70
70
70
70
70
74
38
ENDCHAR

STARTCHAR u
ENCODING 117
SWIDTH 698 0
DWIDTH 12 0
BBX 11 9 1 0
BITMAP
F3C0
71C0
71C0
71C0
71C0
71C0
71C0
71C0
3EE0
ENDCHAR

STARTCHAR v
ENCODING 118
SWIDTH 635 0
DWIDTH 13 0
BBX 12 9 1 0
BITMAP
F8F0
7060
3840
3880
1C80
0D00
0F00
0600
0200
ENDCHAR

STARTCHAR w
ENCODING 119
SWIDTH 906 0
DWIDTH 16 0
BBX 15 9 1 0
BITMAP
FBDE
718C
7188
3B90
3AD0
1AD0
1E60
0C60
0440
ENDCHAR

STARTCHAR x
ENCODING 120
SWIDTH 646 0
DWIDTH 12 0
BBX 11 9 1 0
BITMAP
FBE0
7180
3900
1E00
0E00
0F00
1380
31C0
FBE0
ENDCHAR

STARTCHAR y
ENCODING 121
SWIDTH 635 0
DWIDTH 13 0
BBX 12 12 1 -3
BITMAP
F8F0
7060
3840
3880
1C80
1D00
0D00
0E00
0600
4400
6C00
3800
ENDCHAR

STARTCHAR z
ENCODING 122
SWIDTH 521 0
DWIDTH 9 0
BBX 8 9 1 0
BITMAP
7F
C6
8E
0C
18
38
31
63
FE
ENDCHAR

STARTCHAR braceleft
ENCODING 123
SWIDTH 396 0
DWIDTH 7 0
BBX 5 16 2 -3
BITMAP
38
60
60
E0
E0
E0
60
C0
C0
60
E0
E0
E0
60
60
38
ENDCHAR

STARTCHAR bar
ENCODING 124
SWIDTH 542 0
DWIDTH 9 0
BBX 2 13 4 0
BITMAP
C0
C0
C0
C0
C0
C0
C0
C0
C0
C0
C0
C0
C0
ENDCHAR

STARTCHAR braceright
ENCODING 125
SWIDTH 396 0
DWIDTH 7 0
BBX 5 16 1 -3
BITMAP
E0
30
30
38
38
38
30
18
18
30
38
38
38
30
30
E0
ENDCHAR

STARTCHAR asciitilde
ENCODING 126
SWIDTH 667 0
DWIDTH 11 0
BBX 9 3 1 4
BITMAP
7880
BE80
8F00
ENDCHAR

STARTCHAR space
ENCODING 160
SWIDTH 250 0
DWIDTH 5 0
BBX 0 0 0 0
BITMAP
ENDCHAR

STARTCHAR afii10023
ENCODING 161
SWIDTH 719 0
DWIDTH 13 0
BBX 11 16 1 0
BITMAP
1980
1980
0000
FFE0
38E0
3860
3820
38A0
3980
3F80
3980
38A0
3820
3860
38E0
FFE0
ENDCHAR

STARTCHAR afii10051
ENCODING 162
SWIDTH 927 0
DWIDTH 16 0
BBX 15 13 1 0
BITMAP
FFE0
CE60
8E20
8E20
0E00
0EF8
0F9C
0E0E
0E0E
0E0E
0E0E
0E1C
3FB8
ENDCHAR

STARTCHAR afii10052
ENCODING 163
SWIDTH 687 0
DWIDTH 12 0
BBX 11 17 1 0
BITMAP
0380
0700
0C00
0000
FFE0
38E0
3860
3820
3820
3800
3800
3800
3800
3800
3800
3800
FE00
ENDCHAR

STARTCHAR afii10053
ENCODING 164
SWIDTH 750 0
DWIDTH 13 0
BBX 11 13 1 0
BITMAP
0FC0
38E0
7060
7020
E020
E000
FE00
E000
E000
7020
7020
3840
0F80
ENDCHAR

STARTCHAR afii10054
ENCODING 165
SWIDTH 646 0
DWIDTH 11 0
BBX 11 13 0 0
BITMAP
0FA0
38E0
7060
7020
7820
3E00
1F80
07C0
41E0
40E0
E0E0
F1C0
7F00
ENDCHAR

STARTCHAR afii10055
ENCODING 166
SWIDTH 448 0
DWIDTH 8 0
BBX 7 13 1 0
BITMAP
FE
38
38
38
38
38
38
38
38
38
38
38
FE
ENDCHAR

STARTCHAR afii10056
ENCODING 167
SWIDTH 448 0
DWIDTH 8 0
BBX 7 16 1 0
BITMAP
C6
C6
00
FE
38
38
38
38
38
38
38
38
38
38
38
FE
ENDCHAR

STARTCHAR afii10057
ENCODING 168
SWIDTH 635 0
DWIDTH 11 0
BBX 11 13 0 0
BITMAP
0FE0
0380
0380
0380
0380
0380
0380
0380
4380
E300
C700
6600
3C00
ENDCHAR

STARTCHAR afii10058
ENCODING 169
SWIDTH 1164 0
DWIDTH 20 0
BBX 19 13 1 0
BITMAP
1FFC00
067000
047000
047000
047000
047000
047F00
0C71C0
0870E0
0870E0
C870E0
D871C0
71FF00
ENDCHAR

STARTCHAR afii10059
ENCODING 170
SWIDTH 1171 0
DWIDTH 20 0
BBX 19 13 1 0
BITMAP
FCFC00
387000
387000
387000
387000
387000
3FFF00
3871C0
3870E0
3870E0
3870E0
3871C0
FCFF00
ENDCHAR

STARTCHAR afii10060
ENCODING 171
SWIDTH 946 0
DWIDTH 16 0
BBX 15 13 1 0
BITMAP
FFE0
EEE0
CE60
8E20
0E00
0EF0
0FB8
0E1C
0E1C
0E1C
0E1C
0E1C
1F3E
ENDCHAR

STARTCHAR afii10061
ENCODING 172
SWIDTH 831 0
DWIDTH 14 0
BBX 13 17 1 0
BITMAP
00E0
01C0
0300
0000
FE30
3878
3850
38C0
3880
3980
3FC0
39C0
38E0
38E0
3870
3870
FE78
ENDCHAR

STARTCHAR hyphen
ENCODING 173
SWIDTH 323 0
DWIDTH 5 0
BBX 4 2 1 4
BITMAP
F0
F0
ENDCHAR

STARTCHAR afii10062
ENCODING 174
SWIDTH 748 0
DWIDTH 13 0
BBX 13 17 0 0
BITMAP
0CC0
0CC0
0780
0000
FCF8
3830
3820
1C40
1C40
0E40
0E80
0680
0700
0300
3200
3600
1C00
ENDCHAR

STARTCHAR afii10145
ENCODING 175
SWIDTH 865 0
DWIDTH 15 0
BBX 14 16 1 -3
BITMAP
FCFC
3870
3870
3870
3870
3870
3870
3870
3870
3870
3870
3870
FFFC
0300
0300
0300
ENDCHAR

STARTCHAR afii10017
ENCODING 176
SWIDTH 854 0
DWIDTH 15 0
BBX 14 13 1 0
BITMAP
0100
0300
0380
0780
05C0
09C0
08E0
10E0
1FF0
2070
2038
7038
F8FC
ENDCHAR

STARTCHAR afii10018
ENCODING 177
SWIDTH 792 0
DWIDTH 13 0
BBX 13 13 0 0
BITMAP
FFF0
3870
3830
3810
3810
3800
3FC0
3870
3838
3838
3838
3870
FFC0
ENDCHAR

STARTCHAR afii10019
ENCODING 178
SWIDTH 792 0
DWIDTH 13 0
BBX 12 13 1 0
BITMAP
FF00
39C0
38E0
38E0
38E0
39C0
3F80
38E0
3870
3870
3870
38E0
FF80
ENDCHAR

STARTCHAR afii10020
ENCODING 179
SWIDTH 687 0
DWIDTH 12 0
BBX 11 13 1 0
BITMAP
FFE0
38E0
3860
3820
3820
3800
3800
3800
3800
3800
3800
3800
FE00
ENDCHAR

STARTCHAR afii10021
ENCODING 180
SWIDTH 813 0
DWIDTH 14 0
BBX 13 16 1 -3
BITMAP
3FF8
0CE0
08E0
08E0
08E0
08E0
08E0
18E0
10E0
10E0
30E0
60E0
FFF8
C018
8008
8008
ENDCHAR

STARTCHAR afii10022
ENCODING 181
SWIDTH 719 0
DWIDTH 12 0
BBX 11 13 1 0
BITMAP
FFE0
38E0
3860
3820
38A0
3980
3F80
3980
38A0
3820
3860
38E0
FFE0
ENDCHAR

STARTCHAR afii10024
ENCODING 182
SWIDTH 1189 0
DWIDTH 20 0
BBX 19 13 1 0
BITMAP
63F8C0
F0E1E0
50E140
18E300
08E200
0CE600
1FFF00
1CE700
38E380
38E380
70E1C0
70E1C0
F3F9E0
ENDCHAR

STARTCHAR afii10025
ENCODING 183
SWIDTH 689 0
DWIDTH 12 0
BBX 10 13 1 0
BITMAP
3F00
6380
41C0
41C0
01C0
0380
1F00
0380
01C0
01C0
81C0
C380
3F00
ENDCHAR

STARTCHAR afii10026
ENCODING 184
SWIDTH 880 0
DWIDTH 15 0
BBX 14 13 1 0
BITMAP
FCFC
3870
38F0
38F0
3970
3970
3970
3A70
3A70
3C70
3C70
3870
FCFC
ENDCHAR

STARTCHAR afii10027
ENCODING 185
SWIDTH 880 0
DWIDTH 15 0
BBX 14 17 1 0
BITMAP
0CC0
0CC0
0780
0000
FCFC
3870
38F0
38F0
3970
3970
3A70
3A70
3A70
3C70
3C70
3870
FCFC
ENDCHAR

STARTCHAR afii10028
ENCODING 186
SWIDTH 831 0
DWIDTH 14 0
BBX 13 13 1 0
BITMAP
FE30
3878
3850
38C0
3880
3980
3FC0
39C0
38E0
38E0
3870
3870
FE78
ENDCHAR

STARTCHAR afii10029
ENCODING 187
SWIDTH 844 0
DWIDTH 14 0
BBX 14 13 0 0
BITMAP
1FFC
0670
0470
0470
0470
0470
0470
0C70
0870
0870
C870
D870
71FC
ENDCHAR

STARTCHAR afii10030
ENCODING 188
SWIDTH 1052 0
DWIDTH 18 0
BBX 17 13 1 0
BITMAP
F81F80
3C1E00
3C2E00
2C2E00
2E2E00
2E4E00
274E00
274E00
23CE00
238E00
238E00
218E00
F93F80
ENDCHAR

STARTCHAR afii10031
ENCODING 189
SWIDTH 865 0
DWIDTH 15 0
BBX 14 13 1 0
BITMAP
FCFC
3870
3870
3870
3870
3870
3FF0
3870
3870
3870
3870
3870
FCFC
ENDCHAR

STARTCHAR afii10032
ENCODING 190
SWIDTH 823 0
DWIDTH 14 0
BBX 13 13 1 0
BITMAP
0F80
3060
7070
6030
E038
E038
E038
E038
E038
6030
7070
3060
0F80
ENDCHAR

STARTCHAR afii10033
ENCODING 191
SWIDTH 865 0
DWIDTH 15 0
BBX 14 13 1 0
BITMAP
FFFC
3870
3870
3870
3870
3870
3870
3870
3870
3870
3870
3870
FCFC
ENDCHAR

STARTCHAR afii10034
ENCODING 192
SWIDTH 729 0
DWIDTH 12 0
BBX 12 13 0 0
BITMAP
FFC0
38E0
3870
3870
3870
38E0
3FC0
3800
3800
3800
3800
3800
FE00
ENDCHAR

STARTCHAR afii10035
ENCODING 193
SWIDTH 750 0
DWIDTH 13 0
BBX 11 13 1 0
BITMAP
0FC0
38E0
7060
7020
E020
E000
E000
E000
E000
7020
7020
3840
0F80
ENDCHAR

STARTCHAR afii10036
ENCODING 194
SWIDTH 729 0
DWIDTH 12 0
BBX 11 13 1 0
BITMAP
FFE0
EEE0
CE60
8E20
8E20
0E00
0E00
0E00
0E00
0E00
0E00
0E00
3F80
ENDCHAR

STARTCHAR afii10037
ENCODING 195
SWIDTH 748 0
DWIDTH 13 0
BBX 13 13 0 0
BITMAP
FCF8
3830
3820
1C40
1C40
0E40
0E80
0680
0700
0300
3200
3600
1C00
ENDCHAR

STARTCHAR afii10038
ENCODING 196
SWIDTH 934 0
DWIDTH 16 0
BBX 15 13 1 0
BITMAP
0FE0
0380
1FF0
739C
638C
E38E
E38E
E38E
638C
739C
1FF0
0380
0FE0
ENDCHAR

STARTCHAR afii10039
ENCODING 197
SWIDTH 802 0
DWIDTH 14 0
BBX 14 13 0 0
BITMAP
FCFC
7030
3820
1C40
0E80
0700
0780
0380
05C0
08E0
1070
3038
FCFC
ENDCHAR

STARTCHAR afii10040
ENCODING 198
SWIDTH 882 0
DWIDTH 15 0
BBX 14 16 1 -3
BITMAP
FCFC
3870
3870
3870
3870
3870
3870
3870
3870
3870
3870
3870
FFFC
000C
0004
0004
ENDCHAR

STARTCHAR afii10041
ENCODING 199
SWIDTH 817 0
DWIDTH 14 0
BBX 14 13 0 0
BITMAP
FDFC
3870
3870
3870
3870
3870
1CF0
0F70
0070
0070
0070
0070
01FC
ENDCHAR

STARTCHAR afii10042
ENCODING 200
SWIDTH 1133 0
DWIDTH 19 0
BBX 17 13 1 0
BITMAP
FBEF80
71C700
71C700
71C700
71C700
71C700
71C700
71C700
71C700
71C700
71C700
71C700
FFFF80
ENDCHAR

STARTCHAR afii10043
ENCODING 201
SWIDTH 1153 0
DWIDTH 20 0
BBX 18 16 1 -3
BITMAP
FBEF80
71C700
71C700
71C700
71C700
71C700
71C700
71C700
71C700
71C700
71C700
71C700
FFFFC0
0000C0
000040
000040
ENDCHAR

STARTCHAR afii10044
ENCODING 202
SWIDTH 937 0
DWIDTH 16 0
BBX 14 13 1 0
BITMAP
FF80
EE00
CE00
8E00
8E00
0E00
0FE0
0E38
0E1C
0E1C
0E1C
0E38
3FE0
ENDCHAR

STARTCHAR afii10045
ENCODING 203
SWIDTH 1177 0
DWIDTH 20 0
BBX 19 13 1 0
BITMAP
FE0FE0
380380
380380
380380
380380
380380
3F8380
38E380
387380
387380
387380
38E380
FF8FE0
ENDCHAR

STARTCHAR afii10046
ENCODING 204
SWIDTH 781 0
DWIDTH 13 0
BBX 12 13 1 0
BITMAP
FE00
3800
3800
3800
3800
3800
3F80
38E0
3870
3870
3870
38E0
FF80
ENDCHAR

STARTCHAR afii10047
ENCODING 205
SWIDTH 750 0
DWIDTH 13 0
BBX 11 13 1 0
BITMAP
7E00
E380
C1C0
81C0
80E0
00E0
1FE0
00E0
00E0
81C0
81C0
4380
3E00
ENDCHAR

STARTCHAR afii10048
ENCODING 206
SWIDTH 1219 0
DWIDTH 21 0
BBX 20 13 1 0
BITMAP
FE0F00
3830C0
3870E0
3870E0
38E070
38E070
3FE070
38E070
38E070
3870E0
3870E0
3830C0
FE0F00
ENDCHAR

STARTCHAR afii10049
ENCODING 207
SWIDTH 802 0
DWIDTH 14 0
BBX 13 13 1 0
BITMAP
1FF8
38E0
70E0
70E0
70E0
38E0
0FE0
1CE0
1CE0
38E0
38E0
70E0
F3F8
ENDCHAR

STARTCHAR afii10065
ENCODING 208
SWIDTH 615 0
DWIDTH 10 0
BBX 9 9 1 0
BITMAP
3E00
6700
4700
0700
1F00
6700
E700
E700
7980
ENDCHAR

STARTCHAR afii10066
ENCODING 209
SWIDTH 615 0
DWIDTH 10 0
BBX 10 13 1 0
BITMAP
0040
1F80
3F00
4000
5E00
E300
E380
E380
E380
E380
E380
6300
3E00
ENDCHAR

STARTCHAR afii10067
ENCODING 210
SWIDTH 646 0
DWIDTH 11 0
BBX 9 9 1 0
BITMAP
FF00
7380
7180
7380
7F00
7380
7180
7380
FF00
ENDCHAR

STARTCHAR afii10068
ENCODING 211
SWIDTH 577 0
DWIDTH 10 0
BBX 8 9 1 0
BITMAP
FF
73
71
71
70
70
70
70
F8
ENDCHAR

STARTCHAR afii10069
ENCODING 212
SWIDTH 662 0
DWIDTH 11 0
BBX 11 11 0 -2
BITMAP
7FE0
19C0
11C0
11C0
11C0
11C0
21C0
21C0
FFE0
C060
8020
ENDCHAR

STARTCHAR afii10070
ENCODING 213
SWIDTH 562 0
DWIDTH 10 0
BBX 9 9 1 0
BITMAP
3E00
6300
E380
E380
FF80
E000
E000
6100
1E00
ENDCHAR

STARTCHAR afii10072
ENCODING 214
SWIDTH 936 0
DWIDTH 16 0
BBX 15 9 1 0
BITMAP
E7CE
D396
1390
0BA0
1FF0
3398
3398
638C
E7EE
ENDCHAR

STARTCHAR afii10073
ENCODING 215
SWIDTH 531 0
DWIDTH 9 0
BBX 7 9 1 0
BITMAP
7C
CE
86
0E
3C
0E
C6
CE
7C
ENDCHAR

STARTCHAR afii10074
ENCODING 216
SWIDTH 708 0
DWIDTH 12 0
BBX 11 9 1 0
BITMAP
FBE0
71C0
73C0
73C0
75C0
75C0
79C0
71C0
FBE0
ENDCHAR

STARTCHAR afii10075
ENCODING 217
SWIDTH 708 0
DWIDTH 12 0
BBX 11 13 1 0
BITMAP
1980
1980
0F00
0000
FBE0
71C0
73C0
73C0
75C0
75C0
79C0
71C0
FBE0
ENDCHAR

STARTCHAR afii10076
ENCODING 218
SWIDTH 677 0
DWIDTH 12 0
BBX 11 9 1 0
BITMAP
FCE0
7160
7100
7200
7F00
7380
7180
71C0
FCE0
ENDCHAR

STARTCHAR afii10077
ENCODING 219
SWIDTH 698 0
DWIDTH 12 0
BBX 12 9 0 0
BITMAP
3FF0
0CE0
08E0
08E0
08E0
10E0
D0E0
D0E0
63F0
ENDCHAR

STARTCHAR afii10078
ENCODING 220
SWIDTH 854 0
DWIDTH 15 0
BBX 14 9 1 0
BITMAP
F03C
7878
7878
5CB8
5CB8
5D38
4F38
4638
E67C
ENDCHAR

STARTCHAR afii10079
ENCODING 221
SWIDTH 713 0
DWIDTH 12 0
BBX 11 9 1 0
BITMAP
FBE0
71C0
71C0
71C0
7FC0
71C0
71C0
71C0
FBE0
ENDCHAR

STARTCHAR afii10080
ENCODING 222
SWIDTH 614 0
DWIDTH 10 0
BBX 9 9 1 0
BITMAP
3E00
6300
E380
E380
E380
E380
E380
6300
3E00
ENDCHAR

STARTCHAR afii10081
ENCODING 223
SWIDTH 708 0
DWIDTH 12 0
BBX 11 9 1 0
BITMAP
FFE0
71C0
71C0
71C0
71C0
71C0
71C0
71C0
FBE0
ENDCHAR

STARTCHAR afii10082
ENCODING 224
SWIDTH 656 0
DWIDTH 11 0
BBX 10 12 1 -3
BITMAP
F700
7B80
71C0
71C0
71C0
71C0
71C0
7380
7E00
7000
7000
F800
ENDCHAR

STARTCHAR afii10083
ENCODING 225
SWIDTH 542 0
DWIDTH 9 0
BBX 8 9 1 0
BITMAP
3E
73
E1
E0
E0
E0
E1
71
3E
ENDCHAR

STARTCHAR afii10084
ENCODING 226
SWIDTH 598 0
DWIDTH 10 0
BBX 9 9 1 0
BITMAP
FF80
DD80
9C80
9C80
1C00
1C00
1C00
1C00
3F00
ENDCHAR

STARTCHAR afii10085
ENCODING 227
SWIDTH 594 0
DWIDTH 13 0
BBX 12 12 1 -3
BITMAP
F8F0
7060
3840
3880
1C80
1D00
0D00
0E00
0600
4400
6C00
3800
ENDCHAR

STARTCHAR afii10086
ENCODING 228
SWIDTH 823 0
DWIDTH 14 0
BBX 13 16 1 -3
BITMAP
1F00
0700
0700
0700
3FE0
7770
E738
E738
E738
E738
E738
7770
3FE0
0700
0700
0F80
ENDCHAR

STARTCHAR afii10087
ENCODING 229
SWIDTH 646 0
DWIDTH 11 0
BBX 9 9 1 0
BITMAP
F780
E300
7200
3C00
1C00
1E00
2700
6380
F780
ENDCHAR

STARTCHAR afii10088
ENCODING 230
SWIDTH 711 0
DWIDTH 12 0
BBX 11 11 1 -2
BITMAP
FBE0
71C0
71C0
71C0
71C0
71C0
71C0
71C0
FFE0
0060
0020
ENDCHAR

STARTCHAR afii10089
ENCODING 231
SWIDTH 698 0
DWIDTH 12 0
BBX 11 9 1 0
BITMAP
FBE0
71C0
71C0
71C0
73C0
3DC0
01C0
01C0
03E0
ENDCHAR

STARTCHAR afii10090
ENCODING 232
SWIDTH 1047 0
DWIDTH 16 0
BBX 15 9 1 0
BITMAP
F39E
739C
739C
739C
739C
739C
739C
739C
FFFE
ENDCHAR

STARTCHAR afii10091
ENCODING 233
SWIDTH 1055 0
DWIDTH 16 0
BBX 15 12 1 -3
BITMAP
F39E
739C
739C
739C
739C
739C
739C
739C
FFFE
0006
0002
0002
ENDCHAR

STARTCHAR afii10092
ENCODING 234
SWIDTH 740 0
DWIDTH 13 0
BBX 11 9 1 0
BITMAP
FE00
DC00
9C00
1C00
1FC0
1CE0
1C60
1CE0
3FC0
ENDCHAR

STARTCHAR afii10093
ENCODING 235
SWIDTH 948 0
DWIDTH 16 0
BBX 15 9 1 0
BITMAP
F87E
701C
701C
701C
7E1C
771C
731C
771C
FE7E
ENDCHAR

STARTCHAR afii10094
ENCODING 236
SWIDTH 635 0
DWIDTH 11 0
BBX 9 9 1 0
BITMAP
FC00
7000
7000
7000
7F00
7380
7180
7380
FF00
ENDCHAR

STARTCHAR afii10095
ENCODING 237
SWIDTH 567 0
DWIDTH 10 0
BBX 8 9 1 0
BITMAP
7C
CE
87
07
3F
07
87
8E
7C
ENDCHAR

STARTCHAR afii10096
ENCODING 238
SWIDTH 935 0
DWIDTH 16 0
BBX 15 9 1 0
BITMAP
F8F8
718C
738E
738E
7F8E
738E
738E
718C
FCF8
ENDCHAR

STARTCHAR afii10097
ENCODING 239
SWIDTH 669 0
DWIDTH 11 0
BBX 11 9 0 0
BITMAP
3FE0
71C0
61C0
71C0
3FC0
19C0
31C0
61C0
E7E0
ENDCHAR

STARTCHAR afii61352
ENCODING 240
SWIDTH 1115 0
DWIDTH 19 0
BBX 18 13 0 0
BITMAP
781800
1C3C00
1C2800
1E2000
162780
172CC0
132CC0
13ACC0
11ACC0
11E780
D0E000
D0E000
606780
ENDCHAR

STARTCHAR afii10071
ENCODING 241
SWIDTH 562 0
DWIDTH 10 0
BBX 9 12 1 0
BITMAP
6300
6300
0000
3E00
6300
E380
E380
FF80
E000
E000
6100
1E00
ENDCHAR

STARTCHAR afii10099
ENCODING 242
SWIDTH 646 0
DWIDTH 12 0
BBX 12 13 0 0
BITMAP
7800
3800
FF80
3800
3BC0
3CE0
38E0
38E0
38E0
38E0
38E0
38E0
7DF0
ENDCHAR

STARTCHAR afii10100
ENCODING 243
SWIDTH 581 0
DWIDTH 10 0
BBX 9 13 1 0
BITMAP
0700
0E00
1800
0000
FF80
7180
7080
7000
7000
7000
7000
7000
F800
ENDCHAR

STARTCHAR afii10101
ENCODING 244
SWIDTH 552 0
DWIDTH 9 0
BBX 8 9 1 0
BITMAP
3E
73
E1
E0
FC
E0
E1
71
3E
ENDCHAR

STARTCHAR afii10102
ENCODING 245
SWIDTH 500 0
DWIDTH 9 0
BBX 7 9 1 0
BITMAP
7C
C6
C2
F0
7C
1E
86
C6
7C
ENDCHAR

STARTCHAR afii10103
ENCODING 246
SWIDTH 396 0
DWIDTH 6 0
BBX 5 13 1 0
BITMAP
70
70
70
00
F0
70
70
70
70
70
70
70
F8
ENDCHAR

STARTCHAR afii10104
ENCODING 247
SWIDTH 396 0
DWIDTH 6 0
BBX 6 12 0 0
BITMAP
CC
CC
00
78
38
38
38
38
38
38
38
7C
ENDCHAR

STARTCHAR afii10105
ENCODING 248
SWIDTH 375 0
DWIDTH 6 0
BBX 6 16 -1 -3
BITMAP
1C
1C
1C
00
3C
1C
1C
1C
1C
1C
1C
1C
1C
1C
D8
70
ENDCHAR

STARTCHAR afii10106
ENCODING 249
SWIDTH 967 0
DWIDTH 16 0
BBX 16 9 0 0
BITMAP
1FE0
0DC0
09C0
09C0
09FE
11C7
D1C3
D1C7
63FE
ENDCHAR

STARTCHAR afii10107
ENCODING 250
SWIDTH 969 0
DWIDTH 16 0
BBX 15 9 1 0
BITMAP
FBE0
71C0
71C0
71C0
7FFC
71CE
71C6
71CE
FBFC
ENDCHAR

STARTCHAR afii10108
ENCODING 251
SWIDTH 708 0
DWIDTH 12 0
BBX 12 13 0 0
BITMAP
7800
3800
FF80
3800
3BC0
3CE0
38E0
38E0
38E0
38E0
38E0
38E0
7DF0
ENDCHAR

STARTCHAR afii10109
ENCODING 252
SWIDTH 677 0
DWIDTH 12 0
BBX 10 13 1 0
BITMAP
0700
0E00
1800
0000
F9C0
72C0
7200
7400
7E00
7700
7300
7380
F9C0
ENDCHAR

STARTCHAR section
ENCODING 253
SWIDTH 531 0
DWIDTH 8 0
BBX 8 16 0 -3
BITMAP
3C
76
66
70
38
7C
CE
C7
E3
73
3E
1C
0E
66
6E
3C
ENDCHAR

STARTCHAR afii10110
ENCODING 254
SWIDTH 594 0
DWIDTH 13 0
BBX 12 16 1 -3
BITMAP
1980
1980
0F00
0000
F8F0
7060
3840
3880
1C80
1D00
0D00
0E00
0600
4400
6C00
3800
ENDCHAR

STARTCHAR afii10193
ENCODING 255
SWIDTH 708 0
DWIDTH 12 0
BBX 11 12 1 -3
BITMAP
F3E0
71C0
71C0
71C0
71C0
71C0
71C0
71C0
FFE0
0600
0600
0400
ENDCHAR
ENDFONT
